<svg xmlns="http://www.w3.org/2000/svg" viewBox="0 0 1536 800" role="img" aria-labelledby="title desc"><title id="title">DIGIPIN — भारत का डिजिटल पता</title><desc id="desc">Original YOCEWOR cover showing a digital grid over India with a location pin</desc><defs><linearGradient id="bg" x1="0" y1="0" x2="1" y2="1"><stop stop-color="#062f55"/><stop offset=".55" stop-color="#0879ad"/><stop offset="1" stop-color="#0ca47a"/></linearGradient><linearGradient id="pin" x1="0" y1="0" x2="1" y2="1"><stop stop-color="#ffb62e"/><stop offset="1" stop-color="#ef6c28"/></linearGradient></defs><rect width="1536" height="800" rx="38" fill="url(#bg)"/><circle cx="1260" cy="120" r="180" fill="#ffffff" opacity=".07"/><circle cx="1360" cy="680" r="260" fill="#ffffff" opacity=".05"/><path d="M105 64h1326v672H105z" fill="#ffffff" opacity=".97" rx="30"/><rect x="105" y="64" width="1326" height="9" fill="#f4a51c"/><text x="165" y="145" font-family="Arial,sans-serif" font-size="42" font-weight="900" fill="#0a416d">YOCEWOR</text><text x="168" y="176" font-family="Arial,sans-serif" font-size="17" fill="#65788a">DIGITAL INDIA • INFORMATION UPDATE</text><rect x="1120" y="108" width="245" height="58" rx="29" fill="#0a416d"/><text x="1242" y="145" text-anchor="middle" font-family="Arial,sans-serif" font-size="24" font-weight="900" fill="#fff">DIGIPIN 2026</text><text x="165" y="274" font-family="Arial,sans-serif" font-size="76" font-weight="900" fill="#07365c">भारत का</text><text x="165" y="354" font-family="Arial,sans-serif" font-size="76" font-weight="900" fill="#087fb0">डिजिटल पता</text><text x="169" y="403" font-family="Arial,sans-serif" font-size="25" font-weight="700" fill="#486579">Digital Postal Index Number</text><rect x="165" y="438" width="560" height="110" rx="18" fill="#eef7fb" stroke="#cfe4ef"/><text x="195" y="478" font-family="Arial,sans-serif" font-size="17" font-weight="800" fill="#617688">PRECISION</text><text x="195" y="522" font-family="Arial,sans-serif" font-size="35" font-weight="900" fill="#0879ad">≈ 4m × 4m GRID</text><rect x="165" y="568" width="170" height="92" rx="14" fill="#eef8f0"/><text x="250" y="603" text-anchor="middle" font-family="Arial,sans-serif" font-size="15" font-weight="800" fill="#4f7457">CODE</text><text x="250" y="637" text-anchor="middle" font-family="Arial,sans-serif" font-size="25" font-weight="900" fill="#14804c">10 CHAR</text><rect x="350" y="568" width="170" height="92" rx="14" fill="#fff5e9"/><text x="435" y="603" text-anchor="middle" font-family="Arial,sans-serif" font-size="15" font-weight="800" fill="#86603f">BASIS</text><text x="435" y="637" text-anchor="middle" font-family="Arial,sans-serif" font-size="25" font-weight="900" fill="#e77a20">LAT + LONG</text><rect x="535" y="568" width="190" height="92" rx="14" fill="#f0f3fb"/><text x="630" y="603" text-anchor="middle" font-family="Arial,sans-serif" font-size="15" font-weight="800" fill="#596c88">STATUS</text><text x="630" y="637" text-anchor="middle" font-family="Arial,sans-serif" font-size="25" font-weight="900" fill="#1769aa">FREE</text><g transform="translate(825 205)"><path d="M190 24c-115 0-190 96-190 214 0 131 190 286 190 286s190-155 190-286C380 120 305 24 190 24z" fill="#e9f4f8" stroke="#0b668d" stroke-width="7"/><path d="M190 70c-90 0-145 77-145 170 0 90 77 177 145 238 68-61 145-148 145-238 0-93-55-170-145-170z" fill="#dff0e7" stroke="#15915c" stroke-width="4"/><path d="M126 116l62 36 58-35 44 54-33 45 17 69-73 72-80-70 18-70-35-45z" fill="none" stroke="#57a5a0" stroke-width="7" opacity=".9"/><path d="M96 177h193M84 231h216M96 285h191M135 111l-2 206M190 94v249M244 112l3 206" stroke="#65a7b4" stroke-width="4" opacity=".7"/><circle cx="190" cy="230" r="67" fill="url(#pin)" stroke="#fff" stroke-width="8"/><path d="M190 191c-24 0-43 19-43 43 0 32 43 75 43 75s43-43 43-75c0-24-19-43-43-43z" fill="#fff" opacity=".96"/><circle cx="190" cy="232" r="14" fill="#0879ad"/><text x="190" y="360" text-anchor="middle" font-family="Arial,sans-serif" font-size="24" font-weight="900" fill="#0a416d">10-CHAR DIGITAL LOCATION</text></g><text x="865" y="720" font-family="Arial,sans-serif" font-size="18" font-weight="800" fill="#0a416d">India Post • IIT Hyderabad • NRSC, ISRO</text></svg>